<?xml version="1.0" encoding="UTF-8"?>
<svg id="Layer_1" data-name="Layer 1" xmlns="http://www.w3.org/2000/svg" viewBox="0 0 344.32 344.32">
  <defs>
    <style>
      .cls-1 {
        fill: #010101;
      }

      .cls-2 {
        fill: #f89a3e;
      }

      .cls-3 {
        fill: none;
        stroke: #231f20;
        stroke-miterlimit: 10;
        stroke-width: 4px;
      }
    </style>
  </defs>
  <circle class="cls-2" cx="172.16" cy="172.16" r="172.16"/>
  <path class="cls-3" d="M5.28,247.85c62.18,2.61,124.68,4.82,187.4,6.62,16.42.47,32.95.92,49.47.7,15.7-.2,31.15-1,46.35-1.92,15.86-.96,31.92-2.11,44.97-4.38"/>
  <g>
    <path class="cls-1" d="M21.28,240.89c1.11.76,2.33,1.37,3.44,1.86.57.41,1.16.68,1.79.87-.38.76,0,1.59.71,2.11.16.12.35.2.54.26-.02.77-.03,1.54-.04,2.31.71-.08,1.43-.11,2.16-.1.24-.04.47-.09.68-.2.08-.04.07-.14-.01-.16-.45-.12-.92-.03-1.37.04-.32.05-.66.09-.97.2.06-.66.17-1.39.04-2.01.54.02,1.1-.19,1.46-.59.27-.3.45-.69.78-.9.09-.06.19-.1.3-.13.13.02.26.04.39.05.06.29.16.57.34.81.27.35.68.55,1.12.6-.02.79-.03,1.58-.05,2.37-.11-.02-.23-.02-.34-.03-.1,0-.24,0-.33.06.26.02.53.04.8.06,1.01.09,2.03.16,3.04.2-.01-.08-.06-.15-.13-.18-.38-.16-.84-.17-1.25-.18.36-.05.72-.1,1.05-.26.08-.04.07-.14-.01-.16-.45-.12-.92-.03-1.37.04-.32.05-.66.09-.97.2.06-.67.17-1.39.04-2.02,0-.01,0-.03-.01-.04,0-.02,0-.04,0-.06.28-.03.55-.11.79-.25.59-.34.99-.93,1.21-1.59,2.27-.59,4.57-1.85,5.93-3.38,1.16-1.3,1.97-2.97,2.01-4.69.05-2.24.43-2.67.78-3.43,1.18.06,2.2-.26,3.89,0-.86-.79-2.46-2.28-3.48-2.78-.05-.15-.11-.29-.17-.43-.22-.47-.59-.86-.98-1.21-2.45-2.18-5.9-3.2-9.14-2.69-.11.22.15.55.32.72.14.16.33.25.53.34-.06,0-.11,0-.17,0-.53-.07-1.07,0-1.56.22.41.11.82.22,1.23.33-.08,0-.15,0-.23,0-.05,0-.05.08,0,.09.11.01.22.04.32.05-.05.02-.09.05-.07.09-.63-.14-1.31-.08-1.91.17.39.1.78.21,1.17.31-.31-.03-.62-.03-.94-.01-.02,0-.03.01-.04.03-.1,0-.2,0-.29.01-.1,0-.21.02-.28.1-.1.12-.02.32.12.41.13.09.3.12.43.21,0,0,0,0,.01.01.08.06.14.14.16.23,0,0,0,0,0,.01,0,.01,0,.03,0,.04,0,0,0,.02,0,.03,0,0,0,.02,0,.02,0,.02-.01.03-.02.05-1.16,1.72-3.96,2.82-5.69,3.85-2.13,1.27-4.26,2.56-6.14,4.2-.01.01-.03.02-.04.03-.17.15-.35.29-.53.42-.01.01-.03.02-.04.03-.03.02-.06.04-.09.06-2.06-.75-5.27-1.63-7.19-2.44,1.97,2.82,4.96,4.9,8.28,5.8Z"/>
    <path class="cls-1" d="M27.79,248.4c.2-.03.39-.06.59-.08-.07,0-.15-.01-.22-.02-.12,0-.29,0-.37.1Z"/>
  </g>
  <path class="cls-1" d="M96.67,238.7c0-.3-.35-.58-.66-.59.07-.06.11-.19.06-.28-.08-.15-.26-.2-.42-.23-2.78-.58-5.59-1-8.42-1.26,1.7-.75,3.28-1.76,4.64-2.97.03-.02.06-.04.1-.06.03-.02.03-.04.03-.06.02-.02.04-.03.05-.05.04,0,.07-.03.08-.07.01-.01.03-.03.04-.04-.02,0-.03-.02-.05-.02,0-.02-.03-.04-.05-.05-.01,0-.02,0-.03-.01-.02-.05-.06-.09-.13-.08,0,0-.02,0-.03,0-4.2-2.23-9.53-3.41-13.79-3.78-.62-.05-1.26.05-1.88.23-.42.12-1.23-.61-1.59-.81-2.05-1.14-4.44-1.9-6.78-2.13-2.44-.23-5.56.27-6.75,2.7-.02-.03-.03-.06-.05-.1-1.05,0-4.29,0-5.31.21.78.79,3.72,1.52,4.75,1.91.03.01.06.02.1.03,0,.15-.02.31-.01.46.04,4.09,3.06,7.98,6.3,10.22.96.66,1.98,1.21,3.07,1.61.04.54.15,1.07.4,1.54.21.39.54.72.92.91-.03.49-.06.99-.13,1.48-.09.61-.24,1.22-.34,1.83-.41-.14-.86-.18-1.28-.26-.41-.08-.82-.17-1.24-.17-.1,0-.14.15-.05.19.4.21.83.32,1.27.41.15.03.31.07.46.11-.62,0-1.25.04-1.83.15-.12.02-.13.24,0,.26.59.09,1.24.1,1.86.08-.05.03-.1.06-.15.08-.35.18-.77.32-1.05.6-.06.07-.02.19.07.19.39-.01.76-.24,1.11-.4.37-.18.82-.34,1.12-.63.12.02.24.04.35.05.3.04.64.18.9-.04.06-.05.07-.16.03-.22-.18-.27-.51-.23-.8-.26-.09,0-.2-.01-.31-.01.38-.97.59-2.15.64-3.27,0,0,.01,0,.02,0,.68.02,1.3-.43,1.68-1.01.11-.17.21-.34.29-.53.43.9,1.27,1.53,2.21,1.54-.03.44-.06.88-.12,1.31-.09.61-.24,1.22-.34,1.83-.41-.14-.86-.18-1.28-.26-.41-.08-.82-.17-1.24-.17-.1,0-.14.15-.05.19.4.21.83.32,1.27.41.15.03.31.07.46.11-.62,0-1.25.04-1.83.15-.12.02-.13.24,0,.26.59.09,1.24.1,1.86.08-.05.03-.1.06-.15.08-.35.18-.77.32-1.05.6-.06.07-.02.19.07.19.39-.01.76-.24,1.11-.4.37-.18.82-.34,1.12-.63.12.02.24.04.35.05.3.04.64.18.9-.04.06-.05.07-.16.03-.22-.18-.27-.51-.23-.8-.26-.09,0-.2-.01-.31-.01.39-1,.6-2.21.64-3.36,1.02-.31,1.38-1.35,1.4-2.53,2.22-.99,4.53-2.73,6.24-4.78,3.18,1,6.5,1.53,9.82,1.55.58,0,1.19-.02,1.74-.2.35-.12.4-.61.1-.83-.03-.02-.05-.04-.07-.06.31.15.73-.12.74-.47Z"/>
  <path class="cls-1" d="M108.72,243.48c1.61-1.64,3.37-3.13,5.26-4.44.23-.43.47-.86.74-1.27,2.09-3.64,5.61-6.48,9.73-7.41.82-.18,1.69-.35,2.53-.35-.15.21,2.56-2.89,6.8-3.16,2.14-.13,4.18.67,5.97,1.76.04.02.08.05.12.07.05.03.1.06.16.1.81.02,4.38-.31,5.21.08-.51.56-3.59,1.49-4.17,1.97.28,1.3.22,2.68-.25,3.92-3.11,8.23-6.52,9.17-9.55,10.43,0,0-.01,0-.02,0-.14.43-.33.85-.62,1.21-.1.12-.21.24-.33.34.09.48.12.97.16,1.45.05.58.1,1.14.04,1.71.55.08,1.11.15,1.66.24.48.08,1.01.11,1.42.38.06.04.06.15-.02.18-.4.14-.83.09-1.25.05.5.23.99.47,1.43.75.16.1.05.39-.14.35-.58-.12-1.18-.32-1.76-.54.27.25.53.51.75.79.15.19-.09.41-.28.3-.52-.31-1-.71-1.47-1.08-.25-.2-.56-.37-.78-.61-.22.03-.46.02-.66.02-.36,0-.84.07-1.14-.16-.06-.05-.07-.15,0-.2.28-.22.71-.19,1.06-.24.18-.03.38-.09.59-.11-.17-.54-.24-1.09-.31-1.66-.05-.38-.11-.77-.14-1.15-.11.03-.22.04-.34.04-.49,0-.98-.23-1.31-.6-.19-.21-.32-.46-.41-.73-.07,0-.14,0-.21,0-.18.97-1.09,1.78-2.06,1.8.04.3.06.61.09.91.05.51.09,1,.04,1.51.49.07.98.13,1.47.21.42.07.89.1,1.25.34.05.04.05.14-.02.16-.36.12-.73.08-1.1.04.44.2.87.42,1.26.66.14.09.05.35-.12.31-.51-.11-1.04-.28-1.56-.48.24.22.47.45.66.7.13.17-.08.36-.25.26-.46-.28-.88-.63-1.3-.96-.22-.18-.49-.33-.69-.54-.2.03-.41.02-.59.02-.32,0-.74.06-1.01-.14-.05-.04-.06-.13,0-.17.25-.19.63-.17.93-.22.16-.03.34-.08.52-.1-.15-.48-.21-.96-.27-1.46-.05-.4-.12-.81-.14-1.22-.76-.35-1.32-1.15-1.3-1.99-1.79-.68-3.55-1.53-5.18-2.56-1.74,1.72-3.68,3.23-5.77,4.51-.21.13-.48-.07-.41-.31.11-.36.37-.68.7-.85-.48.26-.99.46-1.52.59-.21.05-.44.09-.63-.01-.28-.15-.32-.57-.16-.85.15-.26.41-.44.67-.59,0,0,0,0,0,0-.31.15-.64.24-.98.27-.33.03-.6-.27-.53-.59.04-.18.12-.36.22-.51,0-.02-.01-.03,0-.05-.1.07-.2.14-.31.18-.25.09-.56.05-.71-.16-.25-.34.06-.8.35-1.1Z"/>
  <path class="cls-1" d="M198.75,257.06c-.12.53.44.92.82.57.51-.47.87-1.14.98-1.87v.92c.02.6.76.77.99.22.18-.45.3-.93.35-1.43.08.57.8.65.98.1l2.57-7.86c.12-.01.24-.04.35-.06.04.78.16,1.62.71,2.09.26.23.59.32.92.3-.01.35,0,.7,0,1.04,0,.71-.03,1.43.02,2.14-.24.08-.47.15-.72.19-.23.04-.47.01-.62.23-.02.04-.02.1,0,.14.15.24.44.2.68.18.27-.03.54-.08.8-.18.37.39,1.1.5,1.57.64.58.17,1.31.43,1.9.25.18-.05.2-.32.05-.42-.56-.39-1.36-.43-2-.61.16.01.32.02.48.02.52,0,1.27.16,1.73-.13.04-.02.06-.06.06-.11.39.26.97.35,1.36.47.58.17,1.31.43,1.9.25.18-.05.2-.32.05-.42-.56-.39-1.36-.43-2-.61.16.01.32.02.48.02.52,0,1.27.16,1.73-.13.07-.05.08-.16.03-.22-.35-.41-.92-.29-1.4-.28-.32,0-.64.01-.95.02.08-.02.16-.04.24-.05.51-.09,1.13-.09,1.57-.41.09-.07.09-.24-.03-.27-.53-.13-1.13.11-1.65.22-.36.08-.79.12-1.13.32.03-.58.03-1.17.04-1.75,0-.46.04-.93,0-1.39.31-.2.57-.5.73-.86.2-.45.26-.95.22-1.45,7.32-1.81,7.45-7.01,7.42-9.74.34-1.7.34-3.7-.02-5.65.58-.31,2.71-.58,3.15-1.13.02,0-3-1.44-3.51-1.66-.15-.04-.3-.09-.46-.13-.7-1.78-1.73-3.33-3.1-4.32-1.05-.81-2.35-1.24-3.97-1.12-2.16.17-3.97,1.98-5.1,3.91-1.36,2.32-2.13,5.02-3.17,7.53-1.89,4.56-3.51,9.23-5.5,13.75.41-.13.82-.25,1.24-.37.5,0,1,0,1.5,0-.82,3.03-1.58,6.08-2.29,9.15ZM208.03,249.88c.2-.09.39-.22.55-.38.45-.45.56-1.02.64-1.66.02.06.04.12.06.19.22.63.68,1.2,1.28,1.34.14.03.29.04.43.02-.02.39,0,.78,0,1.16,0,.71-.03,1.43.02,2.14-.24.08-.47.15-.72.19-.19.03-.38.02-.53.14-.26,0-.52.01-.78.01.08-.02.16-.04.24-.05.51-.09,1.13-.09,1.57-.41.09-.07.09-.24-.03-.27-.53-.13-1.13.11-1.65.22-.36.08-.79.12-1.13.32.03-.58.03-1.17.04-1.75,0-.39.03-.79.01-1.19Z"/>
  <path class="cls-1" d="M268.02,243.83c0-.24.28-.47.53-.47-.05-.05-.09-.15-.05-.22.06-.12.21-.16.34-.19,2.24-.46,4.5-.8,6.78-1.02-1.37-.61-2.64-1.42-3.74-2.39-.03-.01-.05-.03-.08-.04-.02-.01-.03-.03-.03-.05-.01-.01-.03-.03-.04-.04-.03,0-.06-.03-.06-.06-.01-.01-.02-.02-.03-.03.01,0,.03-.01.04-.02,0-.02.02-.03.04-.04,0,0,.02,0,.03,0,.01-.04.05-.08.11-.06,0,0,.01,0,.02,0,3.38-1.8,7.67-2.75,11.11-3.04.5-.04,1.02.04,1.52.18.34.1.99-.49,1.28-.65,1.65-.92,3.58-1.53,5.46-1.71,1.96-.19,4.48.22,5.44,2.17.01-.03.03-.05.04-.08.84,0,1.69.08,2.52.25-.63.64-1.24,1.15-2.06,1.46-.03,0-.05.02-.08.02,0,.12.01.25.01.37-.03,3.3-2.46,6.43-5.07,8.23-.77.54-1.6.97-2.47,1.29-.03.43-.12.86-.32,1.24-.17.31-.43.58-.74.73.02.4.05.79.11,1.19.07.49.19.98.27,1.47.33-.11.69-.14,1.03-.21.33-.07.66-.13.99-.14.08,0,.11.12.04.16-.33.17-.67.26-1.03.33-.12.03-.25.06-.37.08.5,0,1.01.03,1.48.12.1.02.1.2,0,.21-.48.07-1,.08-1.5.06.04.02.08.05.12.07.28.15.62.25.85.49.05.05.01.15-.06.15-.31,0-.61-.19-.89-.32-.3-.14-.66-.27-.9-.51-.09.02-.19.03-.28.04-.24.03-.52.14-.72-.03-.05-.04-.06-.13-.02-.18.14-.22.41-.19.65-.21.08,0,.16-.01.25-.01-.3-.78-.47-1.73-.51-2.63,0,0,0,0-.01,0-.54.02-1.05-.35-1.36-.81-.09-.13-.17-.28-.23-.43-.34.72-1.02,1.23-1.78,1.24.02.35.05.7.1,1.06.07.49.19.98.27,1.47.33-.11.69-.14,1.03-.21.33-.07.66-.13.99-.14.08,0,.11.12.04.16-.33.17-.67.26-1.03.33-.12.03-.25.06-.37.08.5,0,1.01.03,1.48.12.1.02.1.2,0,.21-.48.07-1,.08-1.5.06.04.02.08.05.12.07.28.15.62.25.85.49.05.05.01.15-.06.15-.31,0-.61-.19-.89-.32-.3-.14-.66-.27-.9-.51-.09.02-.19.03-.28.04-.24.03-.52.14-.72-.03-.05-.04-.06-.13-.02-.18.14-.22.41-.19.65-.21.08,0,.16-.01.25-.01-.31-.8-.48-1.78-.51-2.7-.82-.25-1.11-1.09-1.12-2.04-1.79-.79-3.65-2.2-5.03-3.85-2.56.81-5.23,1.23-7.91,1.25-.47,0-.96-.02-1.4-.16-.29-.09-.32-.49-.08-.67.02-.02.04-.03.06-.05-.25.12-.59-.09-.6-.38Z"/>
  <path class="cls-1" d="M327.88,246.7c-1.29-.86-2.52-1.82-3.68-2.86-.13-.25-.26-.5-.4-.75.43-.09.67-.23.61-.43-.28-.97-1.22-1.66-1.84-2.41-.9-1.09-1.79-2.18-2.69-3.28-2.4-2.92-4.58-6.5-8.03-8.25-2.73-1.38-7.83-1.03-8.14,2.87,0,0,0-.02-.01-.03-.03-.08-1.42.47-2.1,1.27-.06.01-.06.1,0,.11.04,0,.08,0,.12,0,.67.31,1.4.5,2.14.58.05.04.1.08.15.12,0,0,0,0,0-.01.27,1.61.85,5.56,4.27,9.6,1.03,1.22,2.42,1.91,3.96,2.27.06.42.27.82.61,1.1.1.08.21.15.33.21-.38,1.12-.77,2.23-1.22,3.33-.64.03-1.27.14-1.9.25-.53.09-1.17.16-1.61.48-.07.05-.05.15.03.17.5.14,1.06-.02,1.57-.1.29-.05.59-.11.89-.17-.19.07-.38.14-.57.19-.45.13-1.03.13-1.41.4-.09.06-.06.18.04.21.47.17,1.14-.1,1.6-.25.34-.11.68-.24,1-.41-.23.19-.46.39-.71.55-.39.26-.86.42-1.2.73-.07.06,0,.18.08.18.5,0,1-.34,1.4-.61.42-.29.85-.62,1.12-1.06,0,0,0,0,0-.01.4.15.85.26,1.27.23.18-.01.23-.25.08-.34-.35-.22-.79-.32-1.22-.38.45-1.05.86-2.14,1.17-3.25.29.06.6.04.88-.06.46-.18.8-.6.87-1.06,0,0,.02,0,.03,0,.06,0,.12,0,.18,0,.04.76.71,1.44,1.5,1.55-.37,1.09-.75,2.17-1.19,3.24-.64.03-1.27.14-1.9.25-.53.09-1.17.16-1.61.48-.07.05-.05.15.03.17.5.14,1.06-.02,1.57-.1.29-.05.59-.11.89-.17-.19.07-.38.14-.57.19-.45.13-1.03.13-1.41.4-.09.06-.06.18.04.21.47.17,1.14-.1,1.6-.25.34-.11.68-.24,1-.41-.23.19-.46.39-.71.55-.39.26-.86.42-1.2.73-.07.06,0,.18.08.18.5,0,1-.34,1.4-.61.42-.29.85-.62,1.12-1.06,0,0,0,0,0-.01.4.15.85.26,1.27.23.18-.01.23-.25.08-.34-.35-.22-.79-.32-1.22-.38.46-1.07.87-2.17,1.18-3.3.69-.1,1.31-.63,1.46-1.29,0,.04,1.27-.35,2.65-.91,1.34,1.34,2.73,2.64,4.17,3.87.04.03.1.04.14,0,.4-.35-.22-1.05-.16-1.2.21.26.54.56.87.53.17-.01.28-.2.21-.35-.1-.22-.36-.47-.53-.63.27.21,1.06.71,1.25.45.22-.3-.29-.82-.46-.91.16.09.48.08.72.05.14-.02.18-.2.06-.28Z"/>
  <path d="M168.31,223c2.64-.39,4.88.35,6.49,2.5,1.33,1.79,1.49,4.27,2.34,6.32.4.96,1.14,1.87,1.48,2.73,1.16,2.95-.15,13.7-1.78,16.52-1.79,3.1-4.78,2.02-5.16,6.83-.15,1.86.44,6.38-.46,7.75l-.79.52c-2.49-1.03-5.03-1.31-7.69-1.55l-.6-.72c1.26-3.17,4.43-6.37,4.23-10-.09-1.6-2.05-1.2-3.03-2.98-1.71-3.11-2.01-8.6-1.33-12.01.94-4.72,5.64-8.75.12-12.76-3.5-.26.96-.8,2.13-1.41,1.58-.82,3.53-1.68,4.03-1.75Z"/>
  <path d="M243.71,251.96l.88,2.81,3.14-1.47c.26,1.17-1.82.8-1.79,2.01.41.36,2.59-.85,2.46.22l-1.66.42-.46,1.11c-1.72-.45-3.6-1.57-5.38-.87-.26-.26-.45-.25-.11-.55.78-.69,2.43.19,2.47-1.33-.22-3.75-3.61-1.61-5.36-.22-1.42,1.13-2.78,3.04-3.64,4.64-.45.83-1.48,3.94-2.13,4.13-1.38.42-5.98-2.35-5.88-3.86.06-1,4.34-4.63,5.26-5.72,4.51-5.33,4.2-13.3,8.65-19.54.76-1.06,3.38-3.22,2.2-4.52-.84-.57-1.88-.17-2.83-.53-.24-.09-.38.11-.3-.36,2.74-2.08,2.4-5.62,6.08-6.68,2.32-.67,5.54.1,7.24,1.85,1.89,1.95,3.98,9.87,4.14,12.64.51,8.61-5.04,13.88-12.98,15.79Z"/>
</svg>